<svg width="318" height="279" xmlns="http://www.w3.org/2000/svg" xmlns:xlink="http://www.w3.org/1999/xlink"><defs><path d="M310.34 153.5l-62.43 108.131a30 30 0 0 1-25.98 15H97.07a30 30 0 0 1-25.98-15L8.66 153.5a30 30 0 0 1 0-30L71.09 15.369a30 30 0 0 1 25.98-15h124.86a30 30 0 0 1 25.98 15L310.34 123.5a30 30 0 0 1 0 30z" id="a"/></defs><g fill="none" fill-rule="evenodd"><g transform="translate(-1 1)"><mask id="b" fill="#fff"><use xlink:href="#a"/></mask><g mask="url(#b)" fill="#FFE01C" fill-rule="nonzero"><path transform="translate(-58 -13)" d="M0.5 0H455.5V303H0.5z"/></g></g><g transform="translate(69 51)" fill="#000" fill-rule="nonzero"><path d="M174.938 43.05a5.2 5.2 0 0 0-4.549-.854l-73.434 20.77a5.193 5.193 0 0 0-3.78 4.995v70.295a20.658 20.658 0 0 0-10.392-2.794c-11.46 0-20.783 9.317-20.783 20.769C62 167.683 71.323 177 82.783 177s20.783-9.317 20.783-20.77V92.659l63.042-17.83v42.658a20.658 20.658 0 0 0-10.391-2.794c-11.46 0-20.783 9.317-20.783 20.77 0 11.452 9.323 20.769 20.783 20.769S177 146.914 177 135.46V47.193c0-1.627-.763-3.16-2.062-4.141zM82.783 166.616c-5.73 0-10.391-4.658-10.391-10.384s4.662-10.385 10.391-10.385c5.73 0 10.392 4.659 10.392 10.385s-4.662 10.384-10.392 10.384zm73.434-20.769c-5.73 0-10.391-4.658-10.391-10.384 0-5.727 4.661-10.385 10.391-10.385s10.392 4.658 10.392 10.385c0 5.726-4.662 10.384-10.392 10.384zm10.392-81.81l-63.042 17.83v-9.978l63.042-17.83v9.977zM71.512 37.061c-11.37-8.491-19.7-16.901-25.466-25.711L40.14 2.325c-1.253-1.914-3.588-2.767-5.75-2.1C32.23.89 30.75 2.92 30.75 5.221v81.82a20.08 20.08 0 0 0-10.25-2.81C9.196 84.232 0 93.601 0 105.116S9.196 126 20.5 126 41 116.631 41 105.116v-83.05c6.125 8.04 14.175 15.744 24.452 23.418 3.944 2.945 6.298 7.671 6.298 12.644 0 8.636-6.897 15.663-15.375 15.663-2.83 0-5.125 2.337-5.125 5.22 0 2.884 2.295 5.222 5.125 5.222C70.505 84.233 82 72.522 82 58.127c0-8.286-3.921-16.161-10.488-21.065zM20.5 115.558c-5.652 0-10.25-4.684-10.25-10.442s4.598-10.442 10.25-10.442 10.25 4.684 10.25 10.442-4.598 10.442-10.25 10.442z"/></g></g></svg>